<svg width="28" height="30" viewBox="0 0 28 30" fill="none" xmlns="http://www.w3.org/2000/svg">
<path d="M26 17C27.1046 17 28 16.1046 28 15C28 13.8954 27.1046 13 26 13L26 17ZM0.585787 13.5858C-0.195263 14.3668 -0.195263 15.6332 0.585787 16.4142L13.3137 29.1421C14.0948 29.9232 15.3611 29.9232 16.1421 29.1421C16.9232 28.3611 16.9232 27.0948 16.1421 26.3137L4.82843 15L16.1421 3.68629C16.9232 2.90524 16.9232 1.63891 16.1421 0.857865C15.3611 0.0768165 14.0948 0.0768166 13.3137 0.857865L0.585787 13.5858ZM26 13L2 13L2 17L26 17L26 13Z" fill="black"/>
</svg>
