<svg width="14" height="17" viewBox="0 0 14 17" fill="none" xmlns="http://www.w3.org/2000/svg">
<path d="M6.75188 8.22656C7.15844 8.22656 7.50586 8.0818 7.79414 7.79226C8.08242 7.50274 8.22656 7.1547 8.22656 6.74812C8.22656 6.34156 8.0818 5.99414 7.79226 5.70586C7.50274 5.41758 7.1547 5.27344 6.74812 5.27344C6.34156 5.27344 5.99414 5.4182 5.70586 5.70774C5.41758 5.99726 5.27344 6.3453 5.27344 6.75188C5.27344 7.15844 5.4182 7.50586 5.70774 7.79414C5.99726 8.08242 6.3453 8.22656 6.75188 8.22656ZM6.75 15.2086C8.62031 13.507 10.002 11.9637 10.8949 10.5785C11.7879 9.19336 12.2344 7.97344 12.2344 6.91875C12.2344 5.26233 11.705 3.90603 10.6462 2.84987C9.58741 1.79371 8.28868 1.26562 6.75 1.26562C5.21132 1.26562 3.9126 1.79371 2.85382 2.84987C1.79502 3.90603 1.26562 5.26233 1.26562 6.91875C1.26562 7.97344 1.72266 9.19336 2.63672 10.5785C3.55078 11.9637 4.92188 13.507 6.75 15.2086ZM6.75 16.875C4.48594 14.9484 2.79492 13.159 1.67695 11.5066C0.558984 9.8543 0 8.325 0 6.91875C0 4.80938 0.678516 3.12891 2.03555 1.87734C3.39258 0.625781 4.96406 0 6.75 0C8.53594 0 10.1074 0.625781 11.4645 1.87734C12.8215 3.12891 13.5 4.80938 13.5 6.91875C13.5 8.325 12.941 9.8543 11.823 11.5066C10.7051 13.159 9.01406 14.9484 6.75 16.875Z" fill="#56CB99"/>
</svg>
